<?xml version="1.0" encoding="UTF-8" standalone="no"?>
<!-- Created with Inkscape (http://www.inkscape.org/) -->

<svg
   xmlns:ns0="http://www.iki.fi/pav/software/textext/"
   xmlns:dc="http://purl.org/dc/elements/1.1/"
   xmlns:cc="http://creativecommons.org/ns#"
   xmlns:rdf="http://www.w3.org/1999/02/22-rdf-syntax-ns#"
   xmlns:svg="http://www.w3.org/2000/svg"
   xmlns="http://www.w3.org/2000/svg"
   xmlns:xlink="http://www.w3.org/1999/xlink"
   xmlns:sodipodi="http://sodipodi.sourceforge.net/DTD/sodipodi-0.dtd"
   xmlns:inkscape="http://www.inkscape.org/namespaces/inkscape"
   width="400"
   height="400"
   id="svg2"
   version="1.1"
   inkscape:version="0.48.3.1 r9886"
   sodipodi:docname="mass_spring_damper.svg">
  <sodipodi:namedview
     id="base"
     pagecolor="#ffffff"
     bordercolor="#666666"
     borderopacity="1.0"
     inkscape:pageopacity="0.0"
     inkscape:pageshadow="2"
     inkscape:zoom="1.4125"
     inkscape:cx="200"
     inkscape:cy="200"
     inkscape:document-units="px"
     inkscape:current-layer="layer1"
     showgrid="false"
     inkscape:window-width="1366"
     inkscape:window-height="744"
     inkscape:window-x="0"
     inkscape:window-y="24"
     inkscape:window-maximized="1"
     showguides="true"
     inkscape:guide-bbox="true" />
  <defs
     id="defs4">
    <marker
       style="overflow:visible;"
       id="Arrow1Mend"
       refX="0.0"
       refY="0.0"
       orient="auto"
       inkscape:stockid="Arrow1Mend">
      <path
         transform="scale(0.4) rotate(180) translate(10,0)"
         style="fill-rule:evenodd;stroke:#000000;stroke-width:1.0pt;"
         d="M 0.0,0.0 L 5.0,-5.0 L -12.5,0.0 L 5.0,5.0 L 0.0,0.0 z "
         id="path4821" />
    </marker>
    <marker
       style="overflow:visible;"
       id="Arrow1Lend"
       refX="0.0"
       refY="0.0"
       orient="auto"
       inkscape:stockid="Arrow1Lend">
      <path
         transform="scale(0.8) rotate(180) translate(12.5,0)"
         style="fill-rule:evenodd;stroke:#000000;stroke-width:1.0pt;"
         d="M 0.0,0.0 L 5.0,-5.0 L -12.5,0.0 L 5.0,5.0 L 0.0,0.0 z "
         id="path4815" />
    </marker>
  </defs>
  <metadata
     id="metadata7">
    <rdf:RDF>
      <cc:Work
         rdf:about="">
        <dc:format>image/svg+xml</dc:format>
        <dc:type
           rdf:resource="http://purl.org/dc/dcmitype/StillImage" />
        <dc:title />
      </cc:Work>
    </rdf:RDF>
  </metadata>
  <g
     inkscape:label="Layer 1"
     inkscape:groupmode="layer"
     id="layer1"
     transform="translate(0,-652.36218)">
    <path
       sodipodi:type="arc"
       style="fill:#000000;stroke:#ffffff;stroke-width:3;stroke-linecap:round;stroke-linejoin:round;stroke-miterlimit:4;stroke-opacity:1;stroke-dasharray:none;stroke-dashoffset:0"
       id="path2985"
       sodipodi:cx="258.89972"
       sodipodi:cy="434.91428"
       sodipodi:rx="16.763292"
       sodipodi:ry="34.457878"
       d="m 275.66301,434.91428 c 0,19.03056 -7.50518,34.45787 -16.76329,34.45787 -9.25811,0 -16.76329,-15.42731 -16.76329,-34.45787 0,-19.03056 7.50518,-34.45788 16.76329,-34.45788 9.25811,0 16.76329,15.42732 16.76329,34.45788 z"
       transform="matrix(2.2459897,0,0,1.0926436,-383.96398,479.35965)" />
    <path
       style="fill:none;stroke:#000000;stroke-width:4;stroke-linecap:butt;stroke-linejoin:miter;stroke-opacity:1;stroke-miterlimit:4;stroke-dasharray:none"
       d="m 65.840708,706.87545 260.530972,0"
       id="path2987"
       inkscape:connector-curvature="0" />
    <path
       style="fill:none;stroke:#000000;stroke-width:3;stroke-linecap:butt;stroke-linejoin:miter;stroke-opacity:1;stroke-miterlimit:4;stroke-dasharray:none"
       d="m 196.6927,949.24229 0,-55.92921"
       id="path2989"
       inkscape:connector-curvature="0" />
    <path
       style="fill:none;stroke:#000000;stroke-width:3;stroke-linecap:butt;stroke-linejoin:miter;stroke-opacity:1;stroke-miterlimit:4;stroke-dasharray:none"
       d="m 146.54867,178.40708 0,62.30088 95.57522,0 0,-30.07807"
       id="path2991"
       inkscape:connector-curvature="0"
       transform="translate(0,652.36218)"
       sodipodi:nodetypes="cccc" />
    <path
       style="fill:none;stroke:#000000;stroke-width:3;stroke-linecap:butt;stroke-linejoin:miter;stroke-opacity:1;stroke-miterlimit:4;stroke-dasharray:none"
       d="m 120.02515,864.37368 0,-73.62832 53.09735,0 0,72.97678"
       id="path2993"
       inkscape:connector-curvature="0"
       sodipodi:nodetypes="cccc" />
    <path
       style="fill:none;stroke:#000000;stroke-width:3;stroke-linecap:butt;stroke-linejoin:miter;stroke-opacity:1;stroke-miterlimit:4;stroke-dasharray:none"
       d="m 146.72783,707.1687 0,82.6184"
       id="path2995"
       inkscape:connector-curvature="0"
       sodipodi:nodetypes="cc" />
    <path
       style="fill:none;stroke:#000000;stroke-width:3;stroke-linecap:butt;stroke-linejoin:miter;stroke-opacity:1;stroke-miterlimit:4;stroke-dasharray:none"
       d="m 217.38072,856.8069 50.74471,-13.597"
       id="path2999"
       inkscape:connector-curvature="0" />
    <path
       style="fill:none;stroke:#000000;stroke-width:3;stroke-linecap:butt;stroke-linejoin:miter;stroke-opacity:1;stroke-miterlimit:4;stroke-dasharray:none"
       d="m 268.11464,843.20326 -50.74471,-13.597"
       id="path2999-1"
       inkscape:connector-curvature="0" />
    <path
       style="fill:none;stroke:#000000;stroke-width:3;stroke-linecap:butt;stroke-linejoin:miter;stroke-opacity:1;stroke-miterlimit:4;stroke-dasharray:none"
       d="m 217.55238,829.4259 50.74471,-13.597"
       id="path2999-3"
       inkscape:connector-curvature="0" />
    <path
       style="fill:none;stroke:#000000;stroke-width:3;stroke-linecap:butt;stroke-linejoin:miter;stroke-opacity:1;stroke-miterlimit:4;stroke-dasharray:none"
       d="m 268.2863,815.82226 -50.74471,-13.597"
       id="path2999-1-3"
       inkscape:connector-curvature="0" />
    <path
       style="fill:none;stroke:#000000;stroke-width:3;stroke-linecap:butt;stroke-linejoin:miter;stroke-opacity:1;stroke-miterlimit:4;stroke-dasharray:none"
       d="m 218.053,802.39313 50.74471,-13.597"
       id="path2999-3-2"
       inkscape:connector-curvature="0" />
    <path
       style="fill:none;stroke:#000000;stroke-width:3;stroke-linecap:butt;stroke-linejoin:miter;stroke-opacity:1;stroke-miterlimit:4;stroke-dasharray:none"
       d="m 268.78692,788.78949 -50.74471,-13.597"
       id="path2999-1-3-5"
       inkscape:connector-curvature="0" />
    <path
       style="fill:none;stroke:#000000;stroke-width:3;stroke-linecap:butt;stroke-linejoin:miter;stroke-opacity:1;stroke-miterlimit:4;stroke-dasharray:none"
       d="m 218.5536,775.11007 50.74471,-13.597"
       id="path2999-3-8"
       inkscape:connector-curvature="0" />
    <path
       style="fill:none;stroke:#000000;stroke-width:3;stroke-linecap:butt;stroke-linejoin:miter;stroke-opacity:1;stroke-miterlimit:4;stroke-dasharray:none"
       d="m 269.28752,761.50643 -50.74471,-13.597"
       id="path2999-1-3-1"
       inkscape:connector-curvature="0" />
    <path
       style="fill:none;stroke:#000000;stroke-width:3;stroke-linecap:butt;stroke-linejoin:miter;stroke-opacity:1;stroke-miterlimit:4;stroke-dasharray:none"
       d="m 244.79661,55.082073 0,33.290336"
       id="path3070"
       inkscape:connector-curvature="0"
       transform="translate(0,652.36218)"
       sodipodi:nodetypes="cc" />
    <path
       style="fill:none;stroke:#000000;stroke-width:3;stroke-linecap:butt;stroke-linejoin:miter;stroke-opacity:1;stroke-miterlimit:4;stroke-dasharray:none"
       d="m 124.90134,830.59348 42.55156,0"
       id="path3072"
       inkscape:connector-curvature="0"
       sodipodi:nodetypes="cc" />
    <path
       style="fill:none;stroke:#000000;stroke-width:3;stroke-linecap:butt;stroke-linejoin:miter;stroke-opacity:1;stroke-miterlimit:4;stroke-dasharray:none"
       d="M 242.02277,863.10943 217.67214,856.5847"
       id="path2999-1-7"
       inkscape:connector-curvature="0"
       sodipodi:nodetypes="cc" />
    <path
       style="fill:none;stroke:#000000;stroke-width:3;stroke-linecap:butt;stroke-linejoin:miter;stroke-opacity:1;stroke-miterlimit:4;stroke-dasharray:none"
       d="m 218.67335,747.53309 26.19766,-7.01964"
       id="path2999-3-8-9"
       inkscape:connector-curvature="0"
       sodipodi:nodetypes="cc" />
    <path
       style="fill:none;stroke:#000000;stroke-width:1px;stroke-linecap:butt;stroke-linejoin:miter;stroke-opacity:1"
       d="m 94.159292,695.54802 -19.38348,11.19106"
       id="path3897"
       inkscape:connector-curvature="0"
       inkscape:tile-cx="84.467552"
       inkscape:tile-cy="48.78137"
       inkscape:tile-w="19.38348"
       inkscape:tile-h="11.19106"
       inkscape:tile-x0="74.775812"
       inkscape:tile-y0="43.18584" />
    <use
       x="0"
       y="0"
       inkscape:tiled-clone-of="#path3897"
       xlink:href="#path3897"
       id="use3919" />
    <use
       x="0"
       y="0"
       inkscape:tiled-clone-of="#path3897"
       xlink:href="#path3897"
       id="use3935"
       inkscape:tile-cx="84.467552"
       inkscape:tile-cy="48.78137"
       inkscape:tile-w="19.38348"
       inkscape:tile-h="11.19106"
       inkscape:tile-x0="74.775812"
       inkscape:tile-y0="43.18584" />
    <use
       x="0"
       y="0"
       inkscape:tiled-clone-of="#use3935"
       xlink:href="#use3935"
       id="use4121" />
    <use
       x="0"
       y="0"
       inkscape:tiled-clone-of="#use3935"
       xlink:href="#use3935"
       transform="translate(19.38348,0)"
       id="use4123" />
    <use
       x="0"
       y="0"
       inkscape:tiled-clone-of="#use3935"
       xlink:href="#use3935"
       transform="translate(38.76696,0)"
       id="use4125" />
    <use
       x="0"
       y="0"
       inkscape:tiled-clone-of="#use3935"
       xlink:href="#use3935"
       transform="translate(58.15044,0)"
       id="use4127" />
    <use
       x="0"
       y="0"
       inkscape:tiled-clone-of="#use3935"
       xlink:href="#use3935"
       transform="translate(77.53392,0)"
       id="use4129" />
    <use
       x="0"
       y="0"
       inkscape:tiled-clone-of="#use3935"
       xlink:href="#use3935"
       transform="translate(96.9174,0)"
       id="use4131" />
    <use
       x="0"
       y="0"
       inkscape:tiled-clone-of="#use3935"
       xlink:href="#use3935"
       transform="translate(116.30088,0)"
       id="use4133" />
    <use
       x="0"
       y="0"
       inkscape:tiled-clone-of="#use3935"
       xlink:href="#use3935"
       transform="translate(135.68436,0)"
       id="use4135" />
    <use
       x="0"
       y="0"
       inkscape:tiled-clone-of="#use3935"
       xlink:href="#use3935"
       transform="translate(155.06784,0)"
       id="use4137" />
    <use
       x="0"
       y="0"
       inkscape:tiled-clone-of="#use3935"
       xlink:href="#use3935"
       transform="translate(174.45132,0)"
       id="use4139" />
    <use
       x="0"
       y="0"
       inkscape:tiled-clone-of="#use3935"
       xlink:href="#use3935"
       transform="translate(193.8348,0)"
       id="use4141" />
    <use
       x="0"
       y="0"
       inkscape:tiled-clone-of="#use3935"
       xlink:href="#use3935"
       transform="translate(213.21828,0)"
       id="use4143" />
    <use
       x="0"
       y="0"
       inkscape:tiled-clone-of="#use3935"
       xlink:href="#use3935"
       transform="translate(232.60176,0)"
       id="use4145" />
    <g
       id="g4309"
       ns0:preamble=""
       ns0:text="$m$"
       transform="matrix(2,0,0,2,-208.26353,709.27877)">
      <defs
         id="defs4311">
        <g
           id="g4313">
          <symbol
             id="textext-08e211e0-0"
             overflow="visible"
             style="overflow:visible">
            <path
               id="path4316"
               d=""
               style="stroke:none"
               inkscape:connector-curvature="0" />
          </symbol>
          <symbol
             id="textext-08e211e0-1"
             overflow="visible"
             style="overflow:visible">
            <path
               id="path4319"
               d="m 0.875,-0.59375 c -0.03125,0.15625 -0.09375,0.390625 -0.09375,0.4375 0,0.171875 0.140625,0.265625 0.296875,0.265625 0.125,0 0.296875,-0.078125 0.375,-0.28125 0,-0.015625 0.125,-0.484375 0.1875,-0.734375 l 0.21875,-0.890625 C 1.90625,-2.03125 1.96875,-2.25 2.03125,-2.46875 c 0.03125,-0.171875 0.109375,-0.46875 0.125,-0.5 0.140625,-0.3125 0.671875,-1.21875 1.625,-1.21875 0.453125,0 0.53125,0.375 0.53125,0.703125 0,0.25 -0.0625,0.53125 -0.140625,0.828125 L 3.890625,-1.5 3.6875,-0.75 c -0.03125,0.203125 -0.125,0.546875 -0.125,0.59375 0,0.171875 0.140625,0.265625 0.28125,0.265625 0.3125,0 0.375,-0.25 0.453125,-0.5625 0.140625,-0.5625 0.515625,-2.015625 0.59375,-2.40625 0.03125,-0.125 0.5625,-1.328125 1.65625,-1.328125 0.421875,0 0.53125,0.34375 0.53125,0.703125 0,0.5625 -0.421875,1.703125 -0.625,2.234375 -0.078125,0.234375 -0.125,0.34375 -0.125,0.546875 0,0.46875 0.34375,0.8125 0.8125,0.8125 0.9375,0 1.3125,-1.453125 1.3125,-1.53125 0,-0.109375 -0.09375,-0.109375 -0.125,-0.109375 -0.09375,0 -0.09375,0.03125 -0.140625,0.1875 -0.15625,0.53125 -0.46875,1.234375 -1.015625,1.234375 -0.171875,0 -0.25,-0.09375 -0.25,-0.328125 0,-0.25 0.09375,-0.484375 0.1875,-0.703125 0.1875,-0.53125 0.609375,-1.625 0.609375,-2.203125 0,-0.640625 -0.40625,-1.0625 -1.15625,-1.0625 -0.734375,0 -1.25,0.4375 -1.625,0.96875 0,-0.125 -0.03125,-0.46875 -0.3125,-0.703125 -0.25,-0.21875 -0.5625,-0.265625 -0.8125,-0.265625 -0.90625,0 -1.390625,0.640625 -1.5625,0.875 -0.046875,-0.578125 -0.46875,-0.875 -0.921875,-0.875 -0.453125,0 -0.640625,0.390625 -0.734375,0.5625 -0.171875,0.359375 -0.296875,0.9375 -0.296875,0.96875 0,0.109375 0.09375,0.109375 0.109375,0.109375 0.109375,0 0.109375,-0.015625 0.171875,-0.234375 0.171875,-0.703125 0.375,-1.1875 0.734375,-1.1875 0.15625,0 0.296875,0.078125 0.296875,0.453125 0,0.21875 -0.03125,0.328125 -0.15625,0.84375 z"
               style="stroke:none"
               inkscape:connector-curvature="0" />
          </symbol>
        </g>
      </defs>
      <g
         id="textext-08e211e0-2">
        <g
           id="g4322"
           style="fill:#000000;fill-opacity:1">
          <use
             id="use4324"
             y="134.765"
             x="223.43201"
             xlink:href="#textext-08e211e0-1"
             width="400"
             height="400" />
        </g>
      </g>
    </g>
    <g
       transform="matrix(2,0,0,2,-346.05561,543.41648)"
       ns0:text="$c$"
       ns0:preamble=""
       id="g4422">
      <defs
         id="defs4424">
        <g
           id="g4426">
          <symbol
             style="overflow:visible"
             overflow="visible"
             id="textext-2f24d870-0">
            <path
               inkscape:connector-curvature="0"
               style="stroke:none"
               d=""
               id="path4429" />
          </symbol>
          <symbol
             style="overflow:visible"
             overflow="visible"
             id="textext-2f24d870-1">
            <path
               inkscape:connector-curvature="0"
               style="stroke:none"
               d="m 3.953125,-3.78125 c -0.171875,0 -0.296875,0 -0.4375,0.125 -0.171875,0.15625 -0.1875,0.328125 -0.1875,0.390625 0,0.25 0.1875,0.359375 0.375,0.359375 0.28125,0 0.546875,-0.25 0.546875,-0.640625 0,-0.484375 -0.46875,-0.859375 -1.171875,-0.859375 -1.34375,0 -2.671875,1.421875 -2.671875,2.828125 0,0.90625 0.578125,1.6875 1.625,1.6875 1.421875,0 2.25,-1.0625 2.25,-1.171875 0,-0.0625 -0.046875,-0.140625 -0.109375,-0.140625 -0.0625,0 -0.078125,0.03125 -0.140625,0.109375 -0.78125,0.984375 -1.875,0.984375 -1.984375,0.984375 -0.625,0 -0.90625,-0.484375 -0.90625,-1.09375 0,-0.40625 0.203125,-1.375 0.546875,-1.984375 0.3125,-0.578125 0.859375,-1 1.40625,-1 0.328125,0 0.71875,0.125 0.859375,0.40625 z"
               id="path4432" />
          </symbol>
        </g>
      </defs>
      <g
         id="textext-2f24d870-2">
        <g
           style="fill:#000000;fill-opacity:1"
           id="g4435">
          <use
             height="400"
             width="400"
             xlink:href="#textext-2f24d870-1"
             x="223.43201"
             y="134.765"
             id="use4437" />
        </g>
      </g>
    </g>
    <g
       id="g4555"
       ns0:preamble=""
       ns0:text="$k$"
       transform="matrix(2,0,0,2,-167.19648,535.69871)">
      <defs
         id="defs4557">
        <g
           id="g4559">
          <symbol
             style="overflow:visible"
             id="textext-98de1750-0"
             overflow="visible">
            <path
               inkscape:connector-curvature="0"
               id="path4562"
               d=""
               style="stroke:none" />
          </symbol>
          <symbol
             style="overflow:visible"
             id="textext-98de1750-1"
             overflow="visible">
            <path
               inkscape:connector-curvature="0"
               id="path4565"
               d="m 2.859375,-6.8125 c 0,0 0,-0.109375 -0.125,-0.109375 -0.234375,0 -0.953125,0.078125 -1.21875,0.109375 -0.078125,0 -0.1875,0.015625 -0.1875,0.1875 0,0.125 0.09375,0.125 0.234375,0.125 0.484375,0 0.5,0.0625 0.5,0.171875 L 2.03125,-6.125 0.59375,-0.390625 c -0.046875,0.140625 -0.046875,0.15625 -0.046875,0.21875 0,0.234375 0.203125,0.28125 0.296875,0.28125 0.125,0 0.265625,-0.09375 0.328125,-0.203125 0.046875,-0.09375 0.5,-1.9375 0.5625,-2.1875 0.34375,0.03125 1.15625,0.1875 1.15625,0.84375 0,0.078125 0,0.109375 -0.03125,0.21875 -0.015625,0.109375 -0.03125,0.234375 -0.03125,0.34375 0,0.578125 0.390625,0.984375 0.90625,0.984375 0.296875,0 0.578125,-0.15625 0.796875,-0.53125 0.25,-0.4375 0.359375,-0.984375 0.359375,-1 0,-0.109375 -0.09375,-0.109375 -0.125,-0.109375 -0.09375,0 -0.109375,0.046875 -0.140625,0.1875 -0.203125,0.71875 -0.421875,1.234375 -0.859375,1.234375 -0.203125,0 -0.328125,-0.109375 -0.328125,-0.46875 0,-0.171875 0.046875,-0.40625 0.078125,-0.5625 C 3.5625,-1.3125 3.5625,-1.34375 3.5625,-1.453125 3.5625,-2.09375 2.9375,-2.375 2.078125,-2.5 2.390625,-2.671875 2.71875,-2.984375 2.9375,-3.234375 3.421875,-3.765625 3.875,-4.1875 4.359375,-4.1875 c 0.0625,0 0.078125,0 0.09375,0.015625 0.125,0.015625 0.125,0.015625 0.21875,0.078125 0.015625,0 0.015625,0.015625 0.03125,0.03125 -0.46875,0.03125 -0.5625,0.421875 -0.5625,0.546875 0,0.15625 0.109375,0.34375 0.375,0.34375 0.265625,0 0.546875,-0.21875 0.546875,-0.609375 0,-0.296875 -0.234375,-0.625 -0.671875,-0.625 -0.28125,0 -0.734375,0.078125 -1.453125,0.875 -0.34375,0.375 -0.734375,0.78125 -1.109375,0.921875 z"
               style="stroke:none" />
          </symbol>
        </g>
      </defs>
      <g
         id="textext-98de1750-2">
        <g
           id="g4568"
           style="fill:#000000;fill-opacity:1">
          <use
             height="400"
             width="400"
             id="use4570"
             y="134.765"
             x="223.43201"
             xlink:href="#textext-98de1750-1" />
        </g>
      </g>
    </g>
    <g
       transform="matrix(2,0,0,2,-86.228927,567.28988)"
       ns0:text="$g$"
       ns0:preamble=""
       id="g4708">
      <defs
         id="defs4710">
        <g
           id="g4712">
          <symbol
             style="overflow:visible"
             overflow="visible"
             id="textext-ee8938ff-0">
            <path
               inkscape:connector-curvature="0"
               style="stroke:none"
               d=""
               id="path4715" />
          </symbol>
          <symbol
             style="overflow:visible"
             overflow="visible"
             id="textext-ee8938ff-1">
            <path
               inkscape:connector-curvature="0"
               style="stroke:none"
               d="M 4.6875,-3.765625 C 4.703125,-3.8125 4.71875,-3.875 4.71875,-3.9375 c 0,-0.171875 -0.109375,-0.265625 -0.28125,-0.265625 -0.09375,0 -0.375,0.0625 -0.40625,0.421875 -0.1875,-0.359375 -0.53125,-0.625 -0.9375,-0.625 -1.125,0 -2.359375,1.390625 -2.359375,2.828125 0,0.984375 0.59375,1.578125 1.3125,1.578125 0.59375,0 1.0625,-0.46875 1.15625,-0.578125 L 3.21875,-0.5625 C 3.015625,0.3125 2.890625,0.734375 2.890625,0.75 2.84375,0.84375 2.515625,1.828125 1.453125,1.828125 1.265625,1.828125 0.9375,1.8125 0.65625,1.71875 0.953125,1.640625 1.0625,1.375 1.0625,1.203125 c 0,-0.15625 -0.109375,-0.34375 -0.375,-0.34375 -0.21875,0 -0.53125,0.171875 -0.53125,0.578125 0,0.40625 0.359375,0.609375 1.3125,0.609375 1.25,0 1.96875,-0.78125 2.125,-1.375 z M 3.40625,-1.28125 C 3.34375,-1.015625 3.109375,-0.765625 2.890625,-0.578125 2.6875,-0.40625 2.375,-0.21875 2.078125,-0.21875 c -0.5,0 -0.640625,-0.515625 -0.640625,-0.921875 0,-0.46875 0.28125,-1.65625 0.5625,-2.15625 C 2.265625,-3.78125 2.6875,-4.1875 3.109375,-4.1875 c 0.65625,0 0.796875,0.8125 0.796875,0.859375 0,0.046875 -0.015625,0.109375 -0.03125,0.140625 z"
               id="path4718" />
          </symbol>
        </g>
      </defs>
      <g
         id="textext-ee8938ff-2">
        <g
           style="fill:#000000;fill-opacity:1"
           id="g4721">
          <use
             height="400"
             width="400"
             xlink:href="#textext-ee8938ff-1"
             x="223.43201"
             y="134.765"
             id="use4723" />
        </g>
      </g>
    </g>
    <path
       sodipodi:nodetypes="cc"
       transform="translate(0,652.36218)"
       inkscape:connector-curvature="0"
       id="path4802"
       d="m 83.280852,56.601681 0,243.353139"
       style="fill:none;stroke:#000000;stroke-width:1px;stroke-linecap:butt;stroke-linejoin:miter;stroke-opacity:1;marker-end:url(#Arrow1Lend)" />
    <path
       sodipodi:nodetypes="cc"
       transform="translate(0,652.36218)"
       inkscape:connector-curvature="0"
       id="path4804"
       d="m 154.66444,301.57717 -93.555763,0"
       style="fill:none;stroke:#000000;stroke-width:1px;stroke-linecap:butt;stroke-linejoin:miter;stroke-opacity:1" />
    <path
       transform="translate(0,652.36218)"
       inkscape:connector-curvature="0"
       id="path4806"
       d="m 344.47989,178.27825 0,79.49536"
       style="fill:none;stroke:#000000;stroke-width:4;stroke-linecap:butt;stroke-linejoin:miter;stroke-opacity:1;marker-end:url(#Arrow1Mend);stroke-miterlimit:4;stroke-dasharray:none" />
    <g
       id="g5706"
       ns0:preamble=""
       ns0:text="$x$, $v$"
       transform="matrix(2,0,0,2,-403.90337,570.00071)">
      <defs
         id="defs5708">
        <g
           id="g5710">
          <symbol
             id="textext-5464613c-0"
             overflow="visible"
             style="overflow:visible">
            <path
               id="path5713"
               d=""
               style="stroke:none"
               inkscape:connector-curvature="0" />
          </symbol>
          <symbol
             id="textext-5464613c-1"
             overflow="visible"
             style="overflow:visible">
            <path
               id="path5716"
               d="M 3.328125,-3.015625 C 3.390625,-3.265625 3.625,-4.1875 4.3125,-4.1875 c 0.046875,0 0.296875,0 0.5,0.125 C 4.53125,-4 4.34375,-3.765625 4.34375,-3.515625 c 0,0.15625 0.109375,0.34375 0.375,0.34375 0.21875,0 0.53125,-0.171875 0.53125,-0.578125 0,-0.515625 -0.578125,-0.65625 -0.921875,-0.65625 -0.578125,0 -0.921875,0.53125 -1.046875,0.75 -0.25,-0.65625 -0.78125,-0.75 -1.078125,-0.75 -1.03125,0 -1.609375,1.28125 -1.609375,1.53125 0,0.109375 0.109375,0.109375 0.125,0.109375 0.078125,0 0.109375,-0.03125 0.125,-0.109375 0.34375,-1.0625 1,-1.3125 1.34375,-1.3125 0.1875,0 0.53125,0.09375 0.53125,0.671875 0,0.3125 -0.171875,0.96875 -0.53125,2.375 -0.15625,0.609375 -0.515625,1.03125 -0.953125,1.03125 -0.0625,0 -0.28125,0 -0.5,-0.125 0.25,-0.0625 0.46875,-0.265625 0.46875,-0.546875 0,-0.265625 -0.21875,-0.34375 -0.359375,-0.34375 -0.3125,0 -0.546875,0.25 -0.546875,0.578125 0,0.453125 0.484375,0.65625 0.921875,0.65625 0.671875,0 1.03125,-0.703125 1.046875,-0.75 0.125,0.359375 0.484375,0.75 1.078125,0.75 1.03125,0 1.59375,-1.28125 1.59375,-1.53125 0,-0.109375 -0.078125,-0.109375 -0.109375,-0.109375 -0.09375,0 -0.109375,0.046875 -0.140625,0.109375 -0.328125,1.078125 -1,1.3125 -1.3125,1.3125 -0.390625,0 -0.546875,-0.3125 -0.546875,-0.65625 0,-0.21875 0.046875,-0.4375 0.15625,-0.875 z"
               style="stroke:none"
               inkscape:connector-curvature="0" />
          </symbol>
          <symbol
             id="textext-5464613c-2"
             overflow="visible"
             style="overflow:visible">
            <path
               id="path5719"
               d="m 4.671875,-3.703125 c 0,-0.546875 -0.265625,-0.703125 -0.4375,-0.703125 -0.25,0 -0.5,0.265625 -0.5,0.484375 0,0.125 0.046875,0.1875 0.15625,0.296875 0.21875,0.203125 0.34375,0.453125 0.34375,0.8125 0,0.421875 -0.609375,2.703125 -1.765625,2.703125 -0.515625,0 -0.75,-0.34375 -0.75,-0.875 0,-0.546875 0.28125,-1.28125 0.578125,-2.109375 0.078125,-0.171875 0.125,-0.3125 0.125,-0.5 0,-0.4375 -0.3125,-0.8125 -0.8125,-0.8125 -0.9375,0 -1.3125,1.453125 -1.3125,1.53125 0,0.109375 0.09375,0.109375 0.109375,0.109375 0.109375,0 0.109375,-0.03125 0.15625,-0.1875 0.296875,-1 0.71875,-1.234375 1.015625,-1.234375 0.078125,0 0.25,0 0.25,0.3125 0,0.25 -0.109375,0.53125 -0.171875,0.703125 -0.4375,1.15625 -0.5625,1.609375 -0.5625,2.046875 0,1.078125 0.875,1.234375 1.328125,1.234375 1.671875,0 2.25,-3.296875 2.25,-3.8125 z"
               style="stroke:none"
               inkscape:connector-curvature="0" />
          </symbol>
          <symbol
             id="textext-5464613c-3"
             overflow="visible"
             style="overflow:visible">
            <path
               id="path5722"
               d=""
               style="stroke:none"
               inkscape:connector-curvature="0" />
          </symbol>
          <symbol
             id="textext-5464613c-4"
             overflow="visible"
             style="overflow:visible">
            <path
               id="path5725"
               d="m 2.03125,-0.015625 c 0,-0.625 -0.25,-1.046875 -0.640625,-1.046875 -0.359375,0 -0.53125,0.28125 -0.53125,0.53125 0,0.265625 0.171875,0.53125 0.53125,0.53125 0.15625,0 0.28125,-0.0625 0.375,-0.140625 L 1.78125,-0.15625 c 0.015625,0 0.015625,0 0.015625,0.140625 0,0.640625 -0.265625,1.25 -0.703125,1.71875 -0.0625,0.0625 -0.078125,0.078125 -0.078125,0.109375 0,0.078125 0.046875,0.109375 0.09375,0.109375 0.125,0 0.921875,-0.78125 0.921875,-1.9375 z"
               style="stroke:none"
               inkscape:connector-curvature="0" />
          </symbol>
        </g>
      </defs>
      <g
         id="textext-5464613c-5">
        <g
           id="g5728"
           style="fill:#000000;fill-opacity:1">
          <use
             id="use5730"
             y="134.765"
             x="223.43201"
             xlink:href="#textext-5464613c-1"
             width="400"
             height="400" />
        </g>
        <g
           id="g5732"
           style="fill:#000000;fill-opacity:1">
          <use
             id="use5734"
             y="134.765"
             x="229.12601"
             xlink:href="#textext-5464613c-4"
             width="400"
             height="400" />
        </g>
        <g
           id="g5736"
           style="fill:#000000;fill-opacity:1">
          <use
             id="use5738"
             y="134.765"
             x="235.214"
             xlink:href="#textext-5464613c-2"
             width="400"
             height="400" />
        </g>
      </g>
    </g>
  </g>
</svg>
